<svg xmlns="http://www.w3.org/2000/svg" xmlns:xlink="http://www.w3.org/1999/xlink" width="24" height="24" viewBox="0 0 24 24">
  <path fill="#ababab" stroke="#ababab" stroke-width="0.144" d="M 2.867188 2.535156 C 2.003906 3.035156 1.703125 4.132812 2.203125 5 L 6.039062 11.640625 L 2.949219 13.425781 C 2.085938 13.925781 1.789062 15.019531 2.289062 15.886719 L 3.339844 17.703125 L 4.84375 16.832031 C 5.441406 17.699219 6.210938 18.804688 6.90625 19.734375 C 7.429688 20.433594 7.628906 20.976562 8.238281 21.402344 C 8.539062 21.613281 8.949219 21.71875 9.34375 21.707031 C 9.742188 21.691406 10.148438 21.59375 10.660156 21.429688 C 10.691406 21.425781 10.71875 21.414062 10.742188 21.402344 L 19.570312 17.410156 C 20.125 17.160156 20.566406 16.976562 20.902344 16.839844 C 21.238281 16.699219 21.410156 16.660156 21.675781 16.476562 C 21.742188 16.429688 21.835938 16.386719 21.949219 16.167969 C 22.007812 16.054688 22.0625 15.871094 22.027344 15.683594 C 21.988281 15.496094 21.875 15.347656 21.785156 15.265625 C 21.605469 15.105469 21.511719 15.097656 21.433594 15.074219 C 21.355469 15.054688 21.296875 15.046875 21.234375 15.039062 C 20.984375 15.007812 20.6875 15.003906 20.234375 14.980469 L 17.953125 14.859375 C 17.417969 14.832031 16.65625 14.191406 16.246094 13.589844 L 14.617188 11.191406 L 15.574219 10.636719 L 14.527344 8.820312 C 14.027344 7.957031 12.925781 7.664062 12.0625 8.164062 L 9.164062 9.835938 L 5.328125 3.195312 C 4.828125 2.328125 3.734375 2.035156 2.867188 2.535156 Z M 6.105469 16.105469 L 13.351562 11.921875 L 15.042969 14.40625 C 15.601562 15.226562 16.535156 16.242188 17.882812 16.3125 L 18.402344 16.339844 L 10.226562 20.042969 C 10.222656 20.042969 10.21875 20.042969 10.214844 20.042969 C 9.769531 20.183594 9.457031 20.246094 9.292969 20.253906 C 9.125 20.257812 9.128906 20.246094 9.078125 20.207031 C 8.96875 20.132812 8.660156 19.652344 8.070312 18.867188 C 7.4375 18.019531 6.695312 16.960938 6.105469 16.105469 Z M 6.105469 16.105469 "/>
</svg>
