<?xml version="1.0" encoding="UTF-8" standalone="no"?>
<!-- Svg Vector Icons : http://www.onlinewebfonts.com/icon -->

<svg
   version="1.1"
   x="0px"
   y="0px"
   viewBox="0 0 24 25.000001"
   enable-background="new 0 0 1000 1000"
   xml:space="preserve"
   id="svg15"
   sodipodi:docname="disconnect.svg"
   inkscape:version="1.1.2 (08b2f3d93c, 2022-04-05)"
   width="24"
   height="25"
   xmlns:inkscape="http://www.inkscape.org/namespaces/inkscape"
   xmlns:sodipodi="http://sodipodi.sourceforge.net/DTD/sodipodi-0.dtd"
   xmlns="http://www.w3.org/2000/svg"
   xmlns:svg="http://www.w3.org/2000/svg"><defs
   id="defs19" /><sodipodi:namedview
   id="namedview17"
   pagecolor="#ffffff"
   bordercolor="#666666"
   borderopacity="1.0"
   inkscape:pageshadow="2"
   inkscape:pageopacity="0.0"
   inkscape:pagecheckerboard="0"
   showgrid="false"
   inkscape:zoom="17.01154"
   inkscape:cx="22.955006"
   inkscape:cy="11.257065"
   inkscape:window-width="1728"
   inkscape:window-height="1016"
   inkscape:window-x="0"
   inkscape:window-y="27"
   inkscape:window-maximized="1"
   inkscape:current-layer="g13"
   units="px"
   width="25px" />
<metadata
   id="metadata9"> Svg Vector Icons : http://www.onlinewebfonts.com/icon </metadata>
<g
   id="g13"
   transform="matrix(0.03107796,-0.01564945,0.03107796,0.01564945,-19.13146,12.521143)"><path
     fill="#ababab"
     d="m 468.2,651 c 6.4,9 7.6,18.5 7.6,23.8 0,6.3 -1.5,18.6 -11.8,28.9 L 271,896.5 c -10.3,10.3 -22.5,11.8 -28.9,11.8 -6.3,0 -18.6,-1.5 -28.9,-11.8 L 103.5,786.8 C 93.2,776.5 91.7,764.3 91.7,757.9 c 0,-6.4 1.5,-18.6 11.8,-28.9 L 296.4,536.1 c 10.3,-10.3 22.5,-11.8 28.9,-11.8 4.5,0 11.8,0.8 19.3,4.8 l 58.6,-58.6 c -48,-39.6 -119.6,-36.9 -164.5,7.9 L 45.7,671.3 C -2,719 -2,796.8 45.7,844.5 l 109.7,109.7 c 47.7,47.7 125.5,47.7 173.2,0 L 521.5,761.3 c 46,-46 47.6,-120.4 4.6,-168.4 z M 954.2,155.5 844.5,45.8 C 796.9,-1.9 719,-1.9 671.3,45.8 L 478.4,238.7 c -44.8,44.8 -47.5,116.5 -7.9,164.5 l 58.6,-58.6 c -4,-7.6 -4.8,-14.9 -4.8,-19.3 0,-6.3 1.5,-18.6 11.8,-28.9 L 729,103.5 c 10.3,-10.3 22.5,-11.8 28.9,-11.8 6.3,0 18.6,1.5 28.9,11.8 l 109.7,109.7 c 10.3,10.3 11.8,22.5 11.8,28.9 0,6.3 -1.5,18.6 -11.8,28.9 L 703.7,464 c -10.3,10.3 -22.5,11.8 -28.9,11.8 -5.3,0 -14.8,-1.1 -23.8,-7.6 l -58,58 c 48,43 122.3,41.5 168.4,-4.6 L 954.3,328.7 c 47.6,-47.6 47.6,-125.6 -0.1,-173.2 z"
     id="path11"
     sodipodi:nodetypes="csccsssssssccccssssccccssccsssssssccsccssc" /></g>
</svg>
