<?xml version="1.0" encoding="UTF-8"?>
<svg xmlns="http://www.w3.org/2000/svg" xmlns:xlink="http://www.w3.org/1999/xlink" width="16" height="16" viewBox="0 0 16 16" version="1.1">
<g id="surface1">
<path style="fill:none;stroke-width:1.5;stroke-linecap:round;stroke-linejoin:round;stroke:rgb(60.392159%,60.000002%,58.823532%);stroke-opacity:1;stroke-miterlimit:4;" d="M 21.997559 11.82251 C 21.997559 9.844971 21.411621 7.910156 20.312988 6.262207 C 19.214355 4.620361 17.651855 3.338623 15.826904 2.581787 C 14.001953 1.824951 11.987793 1.623535 10.046875 2.01416 C 8.112061 2.398682 6.329834 3.35083 4.926025 4.748535 C 3.52832 6.14624 2.576172 7.928467 2.19165 9.869385 C 1.807129 11.810303 2.002441 13.818359 2.759277 15.649414 C 3.516113 17.474365 4.797852 19.036865 6.445801 20.135498 C 8.087646 21.234131 10.022461 21.820068 12 21.820068 " transform="matrix(0.64,0,0,0.64,0.32,0)"/>
<path style="fill:none;stroke-width:1.5;stroke-linecap:round;stroke-linejoin:round;stroke:rgb(60.392159%,60.000002%,58.823532%);stroke-opacity:1;stroke-miterlimit:4;" d="M 2.002441 11.82251 L 21.997559 11.82251 " transform="matrix(0.64,0,0,0.64,0.32,0)"/>
<path style="fill:none;stroke-width:1.5;stroke-linecap:round;stroke-linejoin:round;stroke:rgb(60.392159%,60.000002%,58.823532%);stroke-opacity:1;stroke-miterlimit:4;" d="M 12 21.820068 C 10.071289 21.820068 8.502686 17.340088 8.502686 11.82251 C 8.502686 6.298828 10.071289 1.818848 12 1.818848 C 13.928711 1.818848 15.497314 6.298828 15.497314 11.82251 " transform="matrix(0.64,0,0,0.64,0.32,0)"/>
<path style="fill:none;stroke-width:1.5;stroke-linecap:round;stroke-linejoin:round;stroke:rgb(60.392159%,60.000002%,58.823532%);stroke-opacity:1;stroke-miterlimit:4;" d="M 18.37207 21.691895 C 20.300781 21.691895 21.869385 20.123291 21.869385 18.188477 C 21.869385 16.259766 20.300781 14.691162 18.37207 14.691162 C 16.437256 14.691162 14.868652 16.259766 14.868652 18.188477 C 14.868652 20.123291 16.437256 21.691895 18.37207 21.691895 Z M 18.37207 21.691895 " transform="matrix(0.64,0,0,0.64,0.32,0)"/>
<path style="fill:none;stroke-width:1.5;stroke-linecap:round;stroke-linejoin:round;stroke:rgb(60.392159%,60.000002%,58.823532%);stroke-opacity:1;stroke-miterlimit:4;" d="M 22.998535 22.821045 L 20.837891 20.672607 " transform="matrix(0.64,0,0,0.64,0.32,0)"/>
</g>
</svg>
