<?xml version="1.0" encoding="UTF-8"?>
<svg xmlns="http://www.w3.org/2000/svg" xmlns:xlink="http://www.w3.org/1999/xlink" width="16" height="16" viewBox="0 0 16 16" version="1.1">
<g id="surface1">
<path style="fill:none;stroke-width:1.5;stroke-linecap:round;stroke-linejoin:round;stroke:rgb(0%,69.01961%,31.37255%);stroke-opacity:1;stroke-miterlimit:4;" d="M 21.99707 11.82251 C 21.99707 9.844971 21.411133 7.910156 20.3125 6.262207 C 19.213867 4.620361 17.651367 3.338623 15.826416 2.581787 C 14.001465 1.824951 11.987305 1.623535 10.046387 2.01416 C 8.111572 2.398682 6.329346 3.35083 4.931641 4.748535 C 3.527832 6.14624 2.575684 7.928467 2.191162 9.869385 C 1.806641 11.810303 2.001953 13.818359 2.758789 15.649414 C 3.515625 17.474365 4.797363 19.036865 6.445312 20.135498 C 8.087158 21.234131 10.021973 21.820068 11.999512 21.820068 " transform="matrix(0.64,0,0,0.64,0,0)"/>
<path style="fill:none;stroke-width:1.5;stroke-linecap:round;stroke-linejoin:round;stroke:rgb(0%,69.01961%,31.37255%);stroke-opacity:1;stroke-miterlimit:4;" d="M 2.001953 11.82251 L 21.99707 11.82251 " transform="matrix(0.64,0,0,0.64,0,0)"/>
<path style="fill:none;stroke-width:1.5;stroke-linecap:round;stroke-linejoin:round;stroke:rgb(0%,69.01961%,31.37255%);stroke-opacity:1;stroke-miterlimit:4;" d="M 11.999512 21.820068 C 10.070801 21.820068 8.502197 17.340088 8.502197 11.82251 C 8.502197 6.298828 10.070801 1.818848 11.999512 1.818848 C 13.928223 1.818848 15.50293 6.298828 15.50293 11.82251 " transform="matrix(0.64,0,0,0.64,0,0)"/>
<path style="fill:none;stroke-width:1.5;stroke-linecap:round;stroke-linejoin:round;stroke:rgb(0%,69.01961%,31.37255%);stroke-opacity:1;stroke-miterlimit:4;" d="M 18.371582 21.691895 C 20.300293 21.691895 21.868896 20.123291 21.868896 18.188477 C 21.868896 16.259766 20.300293 14.691162 18.371582 14.691162 C 16.436768 14.691162 14.868164 16.259766 14.868164 18.188477 C 14.868164 20.123291 16.436768 21.691895 18.371582 21.691895 Z M 18.371582 21.691895 " transform="matrix(0.64,0,0,0.64,0,0)"/>
<path style="fill:none;stroke-width:1.5;stroke-linecap:round;stroke-linejoin:round;stroke:rgb(0%,69.01961%,31.37255%);stroke-opacity:1;stroke-miterlimit:4;" d="M 22.998047 22.821045 L 20.837402 20.672607 " transform="matrix(0.64,0,0,0.64,0,0)"/>
</g>
</svg>
